<svg width="64" height="64" viewBox="0 0 64 64" fill="none" xmlns="http://www.w3.org/2000/svg">
<path d="M8.737 51.6378L16.6145 1.23084C16.6617 0.929595 16.8023 0.650784 17.0165 0.433789C17.2307 0.216795 17.5077 0.0725828 17.8083 0.0215228C18.1089 -0.0295371 18.418 0.0151355 18.6918 0.149231C18.9657 0.283326 19.1905 0.500067 19.3345 0.76884L27.4815 15.9638L30.7285 9.78084C30.852 9.54631 31.0371 9.34996 31.264 9.21298C31.4909 9.076 31.751 9.00361 32.016 9.00361C32.281 9.00361 32.5411 9.076 32.768 9.21298C32.9949 9.34996 33.18 9.54631 33.3035 9.78084L55.2885 51.6378H8.737Z" fill="#FFA000"/>
<path d="M35.9515 32.0025L27.4775 15.9565L8.737 51.638L35.9515 32.0025Z" fill="#F57C00"/>
<path d="M55.2885 51.6378L49.255 14.3018C49.2103 14.0387 49.0941 13.7929 48.9191 13.5913C48.7442 13.3897 48.5172 13.2401 48.263 13.1588C48.0088 13.0776 47.7372 13.0679 47.4779 13.1309C47.2186 13.1939 46.9816 13.327 46.793 13.5158L8.737 51.6373L29.7945 63.4463C30.4448 63.8094 31.1772 64 31.922 64C32.6668 64 33.3992 63.8094 34.0495 63.4463L55.2885 51.6378Z" fill="#FFCA28"/>
<path d="M49.255 14.3019C49.2102 14.0388 49.094 13.793 48.9191 13.5915C48.7442 13.3899 48.5172 13.2403 48.263 13.1589C48.0088 13.0776 47.7372 13.0679 47.4779 13.1308C47.2186 13.1937 46.9817 13.3268 46.793 13.5154L39.2395 21.0889L33.3 9.78091C33.1765 9.54638 32.9913 9.35003 32.7644 9.21305C32.5375 9.07608 32.2775 9.00368 32.0125 9.00368C31.7474 9.00368 31.4874 9.07608 31.2605 9.21305C31.0336 9.35003 30.8484 9.54638 30.725 9.78091L27.478 15.9634L19.331 0.768914C19.1868 0.49977 18.9616 0.282804 18.6873 0.148739C18.413 0.0146736 18.1034 -0.0296957 17.8025 0.0219138C17.5017 0.0732947 17.2246 0.218059 17.0107 0.435685C16.7968 0.653311 16.6567 0.932759 16.6105 1.23441L8.73699 51.6379H8.71149L8.73649 51.6669L8.94399 51.7689L46.782 13.8869C46.9707 13.6974 47.208 13.5635 47.4678 13.5001C47.7276 13.4366 47.9999 13.4459 48.2547 13.5271C48.5095 13.6083 48.7371 13.7581 48.9123 13.9602C49.0875 14.1622 49.2037 14.4087 49.248 14.6724L55.2305 51.6739L55.2885 51.6374L49.255 14.3019ZM8.80599 51.5689L16.614 1.59091C16.6604 1.28919 16.8005 1.00969 17.0145 0.792C17.2285 0.574308 17.5056 0.429443 17.8065 0.377914C18.1075 0.326426 18.417 0.370904 18.6913 0.505054C18.9657 0.639204 19.1908 0.85623 19.335 1.12541L27.481 16.3204L30.7285 10.1374C30.8519 9.90288 31.0371 9.70653 31.264 9.56955C31.4909 9.43258 31.7509 9.36018 32.016 9.36018C32.281 9.36018 32.541 9.43258 32.7679 9.56955C32.9948 9.70653 33.18 9.90288 33.3035 10.1374L39.1225 21.2049L8.80499 51.5689H8.80599Z" fill="white" fill-opacity="0.2"/>
<path opacity="0.2" d="M34.0495 63.0902C33.3992 63.4533 32.6668 63.6439 31.922 63.6439C31.1772 63.6439 30.4448 63.4533 29.7945 63.0902L8.78699 51.3152L8.73599 51.6387L29.7935 63.4437C30.4438 63.8068 31.1762 63.9974 31.921 63.9974C32.6658 63.9974 33.3982 63.8068 34.0485 63.4437L55.2885 51.6387L55.2335 51.3037L34.0485 63.0912L34.0495 63.0902Z" fill="#A52714"/>
</svg>
