<svg width="20" height="20" viewBox="0 0 20 20" fill="none" xmlns="http://www.w3.org/2000/svg">
<path d="M9.51229 0.0100365C9.44986 0.0178547 9.25868 0.0452175 9.08701 0.0686703C8.12719 0.197662 6.9762 0.740995 6.19586 1.43287C5.20874 2.30454 4.51034 3.5632 4.29965 4.85313C4.22162 5.32219 4.23332 6.37759 4.31916 6.80756C4.59618 8.21867 5.39212 9.52423 6.46508 10.3373L6.73039 10.5405L6.62115 10.5796C6.14904 10.7594 5.94616 10.8493 5.54428 11.0487C3.81194 11.9204 2.40343 13.2377 1.4007 14.9185C0.58135 16.2944 0.120952 17.8306 0.0273117 19.5309L0 20H0.784237H1.57238V19.8085C1.57238 18.4834 2.12251 16.654 2.85993 15.5283C3.99532 13.7888 5.51697 12.5966 7.37027 11.9907C9.13383 11.4122 10.8662 11.4122 12.6297 11.9907C14.483 12.5966 16.0047 13.7888 17.1401 15.5283C17.8775 16.654 18.4276 18.4834 18.4276 19.8085V20H19.2158H20L19.9727 19.5309C19.879 17.8306 19.4186 16.2944 18.5993 14.9185C17.5966 13.2377 16.1881 11.9204 14.4557 11.0487C14.0538 10.8493 13.851 10.7594 13.3789 10.5796L13.2696 10.5405L13.5349 10.3373C14.6079 9.52423 15.4038 8.21867 15.6808 6.80756C15.7667 6.37759 15.7784 5.32219 15.7004 4.85313C15.5326 3.82509 15.0137 2.73452 14.327 1.95275C13.4725 0.987255 12.2708 0.307112 11.0183 0.0803967C10.7179 0.0256729 9.72298 -0.0212326 9.51229 0.0100365ZM10.6594 1.60876C12.9536 1.98402 14.522 4.14953 14.1553 6.43231C13.7807 8.73073 11.6192 10.3021 9.34062 9.93466C7.04643 9.55941 5.47796 7.39389 5.84471 5.11111C6.21927 2.8127 8.3808 1.24133 10.6594 1.60876Z" fill="currentcolor"/>
</svg>
