<svg width="20" height="16" viewBox="0 0 20 16" fill="none" xmlns="http://www.w3.org/2000/svg">
<path d="M2.53908 0.558615C1.22268 0.82424 0.246115 1.84377 0.0429905 3.15627C0.00783427 3.37111 2.17753e-05 4.69924 0.00783427 8.1758C0.0234593 13.3164 0.00783427 12.9453 0.234397 13.5547C0.492209 14.2461 1.25393 15.0078 1.94533 15.2656C2.55862 15.4961 1.95315 15.4805 10 15.4805C18.0469 15.4805 17.4414 15.4961 18.0547 15.2656C18.75 15.0078 19.5078 14.25 19.7656 13.5547C19.9922 12.9492 19.9805 13.2969 19.9805 8.00002C19.9805 3.57815 19.9727 3.11721 19.9141 2.90236C19.8008 2.4883 19.6875 2.23049 19.4961 1.93752C19.0508 1.25783 18.4766 0.847677 17.6172 0.585958C17.4219 0.523458 16.8047 0.519552 10.0977 0.51174C4.17971 0.507833 2.74612 0.515646 2.53908 0.558615ZM17.3164 1.80861C17.9922 1.9844 18.5156 2.50393 18.6914 3.1758C18.7422 3.37893 18.75 4.00002 18.75 7.96487C18.75 10.8985 18.7344 12.5938 18.711 12.7305C18.6133 13.2422 18.2266 13.7696 17.7774 14.0117C17.2969 14.2656 17.8086 14.25 10 14.25C3.83987 14.25 2.87893 14.2422 2.68362 14.1914C2.00783 14.0156 1.4844 13.4961 1.30862 12.8242C1.22268 12.4805 1.21877 3.52346 1.30862 3.18361C1.4844 2.51565 2.00002 1.9883 2.66018 1.81252C2.9844 1.72658 16.9844 1.72268 17.3164 1.80861Z" fill="currentcolor"/>
<path d="M2.87113 3.05468C2.71098 3.12499 2.54691 3.32421 2.51566 3.48827C2.45316 3.83984 2.37894 3.7539 4.58207 5.95702L6.62113 7.99999L4.58207 10.0391C2.37504 12.2539 2.44926 12.1601 2.51957 12.5195C2.55473 12.7109 2.7891 12.9453 2.98051 12.9805C3.33988 13.0508 3.24613 13.125 5.45707 10.918L7.50004 8.8789L8.6016 9.98046C9.55473 10.9297 9.7266 11.082 9.85551 11.1055C10.2032 11.1719 10.2032 11.168 11.3985 9.98046L12.5 8.8789L14.543 10.918C16.7539 13.125 16.6602 13.0508 17.0196 12.9805C17.211 12.9453 17.4454 12.7109 17.4805 12.5195C17.5508 12.1601 17.625 12.2539 15.418 10.0391L13.3789 7.99999L15.418 5.95702C17.625 3.74609 17.5508 3.83984 17.4805 3.48046C17.4454 3.28906 17.211 3.05468 17.0196 3.01952C16.6524 2.94921 16.8672 2.76171 13.2891 6.33202L10 9.62109L6.7266 6.35156C4.89066 4.51562 3.41019 3.06249 3.34769 3.03906C3.19926 2.98437 3.01566 2.99218 2.87113 3.05468Z" fill="currentcolor"/>
</svg>
