<svg width="56" height="56" viewBox="0 0 56 56" fill="none" xmlns="http://www.w3.org/2000/svg">
<path d="M50.75 1.3127H5.25C4.21764 1.3022 3.22327 1.70166 2.48508 2.42344C1.7469 3.14522 1.32519 4.13036 1.3125 5.1627V50.8465C1.32749 51.8773 1.7502 52.8602 2.48814 53.5801C3.22607 54.3 4.21913 54.6982 5.25 54.6877H50.75C51.7824 54.6959 52.7761 54.2951 53.5139 53.5728C54.2517 52.8506 54.6737 51.8657 54.6875 50.8333V5.14958C54.6691 4.12027 54.2452 3.13982 53.5078 2.42135C52.7705 1.70288 51.7794 1.30447 50.75 1.3127Z" fill="#0076B2"/>
<path d="M9.21376 21.3193H17.1369V46.8125H9.21376V21.3193ZM13.1775 8.63184C14.0863 8.63184 14.9746 8.90137 15.7301 9.40633C16.4856 9.91129 17.0744 10.629 17.422 11.4686C17.7696 12.3083 17.8603 13.2322 17.6827 14.1234C17.5051 15.0146 17.0671 15.8331 16.4242 16.4754C15.7813 17.1177 14.9624 17.5548 14.071 17.7316C13.1796 17.9084 12.2558 17.8168 11.4165 17.4684C10.5772 17.12 9.86006 16.5306 9.35582 15.7746C8.85158 15.0185 8.58289 14.13 8.58376 13.2212C8.58492 12.0036 9.06941 10.8363 9.93078 9.97577C10.7922 9.11522 11.9599 8.63184 13.1775 8.63184ZM22.1069 21.3193H29.7019V24.8193H29.8069C30.8656 22.8156 33.4469 20.7025 37.3013 20.7025C45.325 20.685 46.8125 25.9656 46.8125 32.8125V46.8125H38.8894V34.4093C38.8894 31.4562 38.8369 27.6543 34.7725 27.6543C30.7081 27.6543 30.0169 30.8743 30.0169 34.2168V46.8125H22.1069V21.3193Z" fill="white"/>
</svg>
