<svg width="23" height="23" viewBox="0 0 23 23" fill="none" xmlns="http://www.w3.org/2000/svg">
<g clip-path="url(#clip0_86_53)">
<path d="M20.9378 22.4888C21.1587 22.4886 21.2962 22.4812 21.3518 22.4722V22.4712C21.9125 22.375 22.3437 21.9611 22.4593 21.4282H22.4602C22.4605 21.4245 22.466 21.3779 22.472 21.2573C22.4777 21.1404 22.4834 20.9788 22.4876 20.7729C22.4959 20.3618 22.5003 19.7813 22.5003 19.0327C22.5003 17.8183 22.4969 17.2113 22.469 16.8511C22.4556 16.6775 22.4377 16.5845 22.4192 16.521C22.4013 16.4596 22.3779 16.406 22.3264 16.3062L22.3235 16.3013C22.2913 16.2369 22.2202 16.1356 22.1223 16.0308C22.0237 15.9251 21.9318 15.8509 21.8772 15.8198L21.8694 15.8159C21.7315 15.7342 21.6398 15.6949 21.513 15.6665C21.3675 15.6339 21.1645 15.6135 20.7942 15.5933L20.7923 15.5923C19.3651 15.5097 18.4336 15.3613 17.2688 15.0259H17.2679C16.9767 14.9411 16.8428 14.9052 16.7395 14.8892C16.6507 14.8754 16.5748 14.8746 16.3929 14.8833H16.388C16.2093 14.89 16.1435 14.8988 16.0989 14.9097C16.0611 14.9189 16.0182 14.9342 15.8938 14.9985L15.8929 14.9995L15.844 15.0288C15.8124 15.0489 15.7714 15.0753 15.722 15.1089C15.6232 15.1759 15.4965 15.2652 15.3499 15.3706C15.0567 15.5813 14.6909 15.8528 14.3235 16.1333L14.3216 16.1343L13.3538 16.8589C13.2275 16.9518 13.1219 17.0286 13.0462 17.0825C13.0088 17.1091 12.9752 17.1326 12.9495 17.1499C12.9374 17.158 12.9219 17.1679 12.9065 17.1772C12.8996 17.1815 12.8854 17.1906 12.8675 17.1997C12.8591 17.204 12.8414 17.2123 12.8186 17.2212C12.8146 17.2228 12.7704 17.2414 12.7063 17.2505L12.637 17.2554C12.563 17.2554 12.5049 17.239 12.4905 17.2349C12.4667 17.228 12.4467 17.2203 12.4339 17.2153C12.4078 17.2051 12.3824 17.1936 12.3626 17.1841C12.3214 17.1644 12.2724 17.1386 12.221 17.1108C12.1166 17.0544 11.9811 16.9777 11.8343 16.8921C11.54 16.7204 11.1853 16.5056 10.9153 16.3325L10.9134 16.3306C8.90287 15.0228 7.36503 13.3768 6.12332 11.1899C5.99111 10.9602 5.89491 10.7861 5.84012 10.6577C5.79873 10.5608 5.69144 10.2958 5.85281 10.0317L5.85086 10.0298C5.85357 10.0253 5.85803 10.0206 5.8616 10.0151C5.8627 10.0135 5.86342 10.011 5.86453 10.0093V10.0103C5.89158 9.96934 5.93722 9.90631 5.97586 9.854C6.03342 9.77609 6.11321 9.66934 6.20828 9.54248L6.92801 8.5874C7.20098 8.22492 7.46138 7.8772 7.65945 7.60791C7.75872 7.47295 7.842 7.35917 7.90262 7.27393C7.97231 7.17593 7.99235 7.14288 7.98856 7.1499L7.99246 7.14307C8.00868 7.11425 8.03335 7.05908 8.05789 6.99561L8.12234 6.79736C8.15421 6.66697 8.16321 6.57876 8.14774 6.44482C8.12929 6.28542 8.07695 6.06225 7.96414 5.66064C7.64338 4.51707 7.48454 3.50411 7.42899 2.26904C7.39827 1.59333 7.33354 1.35984 7.22391 1.17041C7.04377 0.864812 6.66708 0.599355 6.33231 0.536621L6.33035 0.535645C6.32598 0.535231 6.2595 0.529147 6.09891 0.522949C5.95068 0.517233 5.75451 0.512793 5.52469 0.509277C5.06498 0.50225 4.47972 0.499506 3.89578 0.501465C3.31189 0.503423 2.73157 0.509801 2.28055 0.52002C2.05463 0.525139 1.86338 0.53078 1.72195 0.537598C1.6512 0.541011 1.59624 0.545031 1.55692 0.54834C1.54152 0.549637 1.53103 0.551538 1.52469 0.552246C1.082 0.660651 0.725762 0.994942 0.5784 1.45068L0.528595 1.65381C0.519776 1.70788 0.511226 1.84394 0.511017 2.06494C0.51082 2.27726 0.51803 2.53936 0.531525 2.82275C0.558595 3.39103 0.610276 4.02791 0.675079 4.50537C1.21935 8.50837 2.7577 11.9978 5.37625 15.1567L5.37527 15.1577C5.83663 15.7137 7.2872 17.1623 7.84305 17.6235C11.002 20.2421 14.4914 21.7804 18.4944 22.3247L18.4934 22.3257C18.9759 22.3906 19.6133 22.4412 20.1809 22.4683C20.464 22.4818 20.7256 22.489 20.9378 22.4888Z" stroke="#28E98C"/>
</g>
<defs>
<clipPath id="clip0_86_53">
<rect width="23" height="23" fill="white"/>
</clipPath>
</defs>
</svg>
