<svg width="20" height="20" viewBox="0 0 20 20" fill="none" xmlns="http://www.w3.org/2000/svg">
<path d="M9.64844 0.558592C9.38281 0.656248 1.23047 4.85156 1.13672 4.93359C1.08594 4.98047 1.00391 5.10547 0.953125 5.21484C0.789062 5.5625 0.847656 5.92578 1.10547 6.19531C1.23438 6.32422 1.5625 6.51172 2.66797 7.07422C3.4375 7.46484 4.05078 7.79687 4.03516 7.8125C4.01953 7.82812 3.375 8.16406 2.60547 8.55469C1.44141 9.14844 1.1875 9.29297 1.07422 9.42578C0.785156 9.76172 0.785156 10.2383 1.07422 10.5742C1.1875 10.707 1.44141 10.8516 2.60547 11.4453C3.375 11.8359 4.01953 12.1719 4.03516 12.1875C4.05078 12.2031 3.4375 12.5352 2.66797 12.9297C1.89844 13.3203 1.21094 13.6953 1.13672 13.7656C0.855469 14.0273 0.78125 14.4258 0.953125 14.7852C1.00391 14.8906 1.08594 15.0195 1.13672 15.0664C1.1875 15.1133 3.12891 16.1211 5.44922 17.3125L9.66797 19.4727H10H10.332L14.5312 17.3242C16.8398 16.1406 18.7773 15.1328 18.8438 15.0781C19.0859 14.875 19.1953 14.4687 19.0977 14.1289C19.0039 13.7891 18.8516 13.6914 16.8008 12.6562C16.4883 12.5 16.168 12.332 16.082 12.2852L15.9297 12.1953L17.3594 11.4648C18.5234 10.8711 18.8125 10.707 18.918 10.582C19.2109 10.2422 19.2109 9.75781 18.918 9.41797C18.8125 9.29297 18.5234 9.12891 17.3594 8.53516C16.5742 8.13281 15.9375 7.79687 15.9453 7.79297C15.9531 7.78516 16.582 7.46094 17.3438 7.07031C18.8359 6.30859 19.0117 6.1875 19.0977 5.875C19.1953 5.53125 19.0859 5.125 18.8438 4.92187C18.7773 4.86719 16.8398 3.85937 14.5352 2.67969L10.3438 0.535154L10.0625 0.519529C9.89453 0.511717 9.73047 0.527342 9.64844 0.558592ZM14.0156 3.53906C16.1797 4.64453 17.9609 5.5625 17.9766 5.57812C18 5.60156 10.1484 9.65234 10.0273 9.67969C10 9.68359 8.43359 8.89844 6.54297 7.92969C4.65234 6.96094 2.85547 6.04297 2.55078 5.88672C2.24609 5.73437 2.00781 5.59375 2.02344 5.57812C2.10547 5.5 9.98828 1.49219 10.0312 1.5039C10.0586 1.51562 11.8516 2.42969 14.0156 3.53906ZM7.40234 9.49609C8.98047 10.3047 9.67188 10.6406 9.80859 10.6602C10.1953 10.7227 10.2695 10.6914 12.6016 9.49609L14.8164 8.35937L16.4141 9.17187C17.2891 9.61719 18.0078 9.98828 18.0078 10C18.0078 10.0117 17.6523 10.1992 17.2188 10.418C16.7812 10.6367 15.9531 11.0625 15.3711 11.3594C14.793 11.6562 13.3438 12.3945 12.1602 13.0039L10 14.1094L7.25781 12.7031C5.74609 11.9297 3.95312 11.0117 3.27344 10.6641C2.58984 10.3164 2.03125 10.0156 2.03125 10C2.03125 9.97656 5.10547 8.37891 5.17969 8.35937C5.18359 8.35937 6.18359 8.87109 7.40234 9.49609ZM7.36328 13.8828C8.55469 14.4922 9.58594 15.0117 9.65234 15.0352C9.81641 15.0898 10.1875 15.0898 10.3555 15.0312C10.4297 15.0078 11.4648 14.4883 12.6562 13.875L14.8203 12.7656L15.8203 13.2734C16.3672 13.5547 17.0859 13.9258 17.418 14.0937L18.0156 14.4062L17.457 14.6992C17.1484 14.8594 15.3438 15.7852 13.4492 16.7539L10.0039 18.5195L6.02734 16.4805C3.83984 15.3633 2.03906 14.4336 2.02344 14.4219C2.00781 14.4062 2.63281 14.0703 3.41016 13.6719C4.1875 13.2773 4.89453 12.9141 4.98047 12.8633C5.06641 12.8164 5.15234 12.7734 5.16797 12.7734C5.18359 12.7734 6.17188 13.2734 7.36328 13.8828Z" fill="currentcolor"/>
</svg>
