<svg width="20" height="20" viewBox="0 0 20 20" fill="none" xmlns="http://www.w3.org/2000/svg">
<g clip-path="url(#clip0_35_273)">
<path d="M6.31251 1.23433C5.71485 1.37886 5.20313 1.83199 4.98829 2.41402C4.91407 2.60933 4.90235 2.74214 4.89063 3.4648L4.87501 4.29683H3.1836C1.33204 4.29683 1.25782 4.30464 0.851571 4.54292C0.496102 4.74996 0.167977 5.19136 0.0625081 5.60542C-0.0273356 5.93746 -0.0273356 8.90621 0.0586019 9.31636C0.132821 9.66402 0.332039 10.0703 0.582039 10.3828L0.781258 10.625V13.9375C0.781258 17.5195 0.777352 17.4609 0.992196 17.8828C1.12501 18.1406 1.38282 18.4101 1.65235 18.5703C2.1172 18.8437 1.58985 18.8281 10 18.8281C18.4102 18.8281 17.8828 18.8437 18.3477 18.5703C18.6172 18.4101 18.875 18.1406 19.0078 17.8828C19.2227 17.4609 19.2188 17.5195 19.2188 13.9375V10.625L19.418 10.3828C19.668 10.0703 19.8672 9.66402 19.9414 9.31636C20.0274 8.90621 20.0274 5.93746 19.9375 5.60542C19.832 5.19136 19.5039 4.74996 19.1484 4.54292C18.7422 4.30464 18.668 4.29683 16.8164 4.29683H15.125L15.1094 3.4648C15.0977 2.74214 15.0859 2.60933 15.0117 2.41402C14.793 1.82027 14.2891 1.37886 13.668 1.23042C13.3086 1.14839 6.66798 1.14839 6.31251 1.23433ZM13.5391 2.41792C13.6289 2.45699 13.75 2.55855 13.8125 2.64058L13.9258 2.78511L13.9375 3.54292L13.9492 4.29683H10H6.05079L6.06251 3.54292L6.07423 2.78511L6.18751 2.64058C6.25001 2.55855 6.3711 2.45699 6.46095 2.41792C6.61329 2.34761 6.78516 2.34371 10 2.34371C13.2149 2.34371 13.3867 2.34761 13.5391 2.41792ZM18.4922 5.52339C18.5625 5.55074 18.6641 5.63667 18.7149 5.70699L18.8086 5.8398V7.48043V9.12105L18.6914 9.35152C18.3438 10.0429 17.3399 10.6523 15.8242 11.0976C14.9375 11.3554 13.7539 11.5742 12.6953 11.6796C12.4492 11.7031 12.1992 11.7304 12.1406 11.7382L12.0391 11.7539L12.0234 11.375C12.0117 11.0507 12 10.9765 11.918 10.8632C11.75 10.6289 11.7266 10.625 9.9922 10.625C8.57032 10.625 8.40626 10.6328 8.28516 10.6953C8.04298 10.8164 7.98829 10.9336 7.97657 11.3711C7.96485 11.7109 7.95313 11.7578 7.89845 11.7421C7.85938 11.7343 7.69141 11.7148 7.51954 11.6992C6.12891 11.5859 4.54688 11.2578 3.44923 10.8593C2.67579 10.5781 1.82423 10.0586 1.53126 9.69136C1.46095 9.60543 1.35548 9.44136 1.29688 9.32808L1.19141 9.12105V7.48043V5.8398L1.28516 5.70699C1.46485 5.45308 0.820321 5.47261 9.9922 5.46871C17.043 5.46871 18.3828 5.47652 18.4922 5.52339ZM2.21876 11.5976C3.45313 12.2187 5.4336 12.6992 7.48048 12.8711C8.01173 12.914 7.9922 12.9062 8.07032 13.1484C8.3711 14.1054 9.41016 14.6601 10.4766 14.4375C11.1602 14.289 11.7305 13.7851 11.9297 13.1523C12.0078 12.9023 11.8945 12.9375 12.9297 12.832C14.1914 12.6992 15.5859 12.414 16.5899 12.0859C17.0078 11.9492 17.875 11.5859 17.9492 11.5195C17.9688 11.5 18 11.4843 18.0156 11.4843C18.0352 11.4843 18.043 12.7851 18.0391 14.3711C18.0274 17.2187 18.0274 17.2617 17.9453 17.3671C17.9024 17.4257 17.8164 17.5117 17.7578 17.5546L17.6524 17.6367H10H2.34766L2.2422 17.5546C2.1836 17.5117 2.09766 17.4257 2.0547 17.3671C1.97266 17.2617 1.97266 17.2187 1.96095 14.3711C1.95704 12.7851 1.96095 11.4843 1.97266 11.4843C1.98438 11.4843 2.09376 11.5351 2.21876 11.5976ZM10.8516 12.3007C10.8399 12.789 10.8359 12.8125 10.7227 12.9726C10.5508 13.2109 10.3594 13.3007 10 13.3007C9.64063 13.3007 9.44923 13.2109 9.27735 12.9726C9.16407 12.8125 9.16016 12.789 9.14845 12.3007L9.13282 11.7968H10H10.8672L10.8516 12.3007Z" fill="currentcolor"/>
</g>
<defs>
<clipPath id="clip0_35_273">
<rect width="20" height="20" fill="currentcolor"/>
</clipPath>
</defs>
</svg>
