<svg width="64" height="65" viewBox="0 0 64 65" fill="none" xmlns="http://www.w3.org/2000/svg">
<path d="M9.027 57.3855L4 1H59.24L54.208 57.377L31.5865 63.6485L9.027 57.3855Z" fill="#1572B6"/>
<path d="M31.6205 59.1239L49.6829 54.0045L53.9323 5.33936H31.6205V59.1239Z" fill="#33A9DC"/>
<path d="M31.6205 25.9753H40.6628L41.2873 18.822H31.6205V11.8364H48.7556L48.5915 13.7107L46.9117 32.9608H31.6205V25.9753Z" fill="white"/>
<path d="M31.661 44.117L31.6309 44.1261L24.0208 42.0255L23.5342 36.4541H16.6756L17.6326 47.4226L31.6299 51.394L31.661 51.3849V44.117Z" fill="#EBEBEB"/>
<path d="M40.0818 32.665L39.2587 42.0199L31.6373 44.123V51.3909L45.6459 47.4221L45.7487 46.2417L46.9374 32.665H40.0818Z" fill="white"/>
<path d="M31.6437 11.8364V18.822H15.1381L15.0012 17.2523L14.69 13.7107L14.5264 11.8364H31.6437ZM31.6205 25.9763V32.9618H24.1063L23.9694 31.3921L23.6577 27.8506L23.4947 25.9763H31.6205Z" fill="#EBEBEB"/>
</svg>
