<svg width="18" height="19" viewBox="0 0 18 19" fill="none" xmlns="http://www.w3.org/2000/svg">
<path d="M3 15.6875V14C3 13.8508 3.05926 13.7077 3.16475 13.6023C3.27024 13.4968 3.41332 13.4375 3.5625 13.4375C3.71168 13.4375 3.85476 13.4968 3.96025 13.6023C4.06574 13.7077 4.125 13.8508 4.125 14V15.6875C4.125 15.791 4.209 15.875 4.3125 15.875H13.6875C13.7372 15.875 13.7849 15.8552 13.8201 15.8201C13.8552 15.7849 13.875 15.7372 13.875 15.6875V14C13.875 13.8508 13.9343 13.7077 14.0398 13.6023C14.1452 13.4968 14.2883 13.4375 14.4375 13.4375C14.5867 13.4375 14.7298 13.4968 14.8352 13.6023C14.9407 13.7077 15 13.8508 15 14V15.6875C15 16.0356 14.8617 16.3694 14.6156 16.6156C14.3694 16.8617 14.0356 17 13.6875 17H4.3125C3.9644 17 3.63056 16.8617 3.38442 16.6156C3.13828 16.3694 3 16.0356 3 15.6875Z" fill="#101010"/>
<path d="M3.91482 7.97768C3.86257 8.02986 3.82112 8.09182 3.79284 8.16003C3.76456 8.22823 3.75 8.30135 3.75 8.37518C3.75 8.44902 3.76456 8.52213 3.79284 8.59034C3.82112 8.65855 3.86257 8.72051 3.91482 8.77268L8.60232 13.4602C8.65449 13.5124 8.71645 13.5539 8.78466 13.5822C8.85287 13.6104 8.92598 13.625 8.99982 13.625C9.07365 13.625 9.14677 13.6104 9.21497 13.5822C9.28318 13.5539 9.34514 13.5124 9.39732 13.4602L14.0848 8.77268C14.137 8.72048 14.1784 8.65851 14.2067 8.59031C14.2349 8.52211 14.2495 8.44901 14.2495 8.37518C14.2495 8.30136 14.2349 8.22826 14.2067 8.16006C14.1784 8.09186 14.137 8.02988 14.0848 7.97768C14.0326 7.92548 13.9706 7.88408 13.9024 7.85582C13.8342 7.82757 13.7611 7.81303 13.6873 7.81303C13.6135 7.81303 13.5404 7.82757 13.4722 7.85582C13.404 7.88408 13.342 7.92548 13.2898 7.97768L9.56232 11.7044V2.56268C9.56232 2.4135 9.50305 2.27042 9.39756 2.16494C9.29207 2.05945 9.149 2.00018 8.99982 2.00018C8.85063 2.00018 8.70756 2.05945 8.60207 2.16494C8.49658 2.27042 8.43732 2.4135 8.43732 2.56268V11.7044L4.70982 7.97768C4.65764 7.92544 4.59568 7.88399 4.52747 7.8557C4.45927 7.82742 4.38615 7.81287 4.31232 7.81287C4.23848 7.81287 4.16537 7.82742 4.09716 7.8557C4.02895 7.88399 3.96699 7.92544 3.91482 7.97768Z" fill="#101010"/>
</svg>
