<svg width="30" height="30" viewBox="0 0 30 30" fill="none" xmlns="http://www.w3.org/2000/svg">
<path d="M4.10157 5.89433C3.18164 6.14043 2.4668 6.92558 2.29102 7.8748C2.20313 8.34355 2.20313 20.9412 2.28516 21.3924C2.48438 22.4471 3.34571 23.2791 4.39454 23.4432C4.64063 23.4783 8.51368 23.4959 15.2637 23.4842L25.752 23.4666L26.0801 23.3318C26.7949 23.0447 27.3164 22.5232 27.6152 21.7967L27.7441 21.4744L27.7617 14.8826C27.7734 10.3416 27.7617 8.17363 27.7149 7.92168C27.627 7.39433 27.3867 6.9373 27.0117 6.55644C26.6426 6.1873 26.3555 6.01738 25.8574 5.88847C25.3535 5.75957 4.59375 5.76543 4.10157 5.89433ZM25.6582 6.82597C25.6992 6.86699 23.9824 8.41386 20.4082 11.5721C17.4844 14.1502 15.0645 16.2654 15.0234 16.2771C14.9531 16.2947 4.38282 7.00761 4.33008 6.88457C4.31836 6.85527 4.38868 6.8084 4.48243 6.79082C4.78711 6.72636 25.5938 6.76152 25.6582 6.82597ZM7.07813 10.6287C8.82422 12.1756 10.2481 13.4705 10.2422 13.5057C10.2305 13.5408 8.67188 15.3455 6.76758 17.5076C4.48829 20.1092 3.29883 21.4158 3.26954 21.3689C3.2461 21.3338 3.22266 18.2928 3.22266 14.6189C3.22266 8.08574 3.22852 7.9334 3.33985 7.68144L3.45704 7.42949L3.67969 7.62285C3.79688 7.73418 5.32618 9.08769 7.07813 10.6287ZM26.7188 7.85136C26.7949 8.1209 26.8008 21.3103 26.7246 21.3514C26.666 21.3924 19.7754 13.576 19.7754 13.4764C19.7754 13.4412 21.293 12.076 23.1445 10.4353C26.8066 7.19511 26.584 7.35918 26.7188 7.85136ZM13.084 15.9314C13.9805 16.7225 14.7773 17.3963 14.8594 17.4256C14.9473 17.4607 15.0527 17.4607 15.1465 17.4256C15.2285 17.3963 16.1133 16.6463 17.1152 15.7615C18.1231 14.8768 18.9668 14.1502 18.9902 14.1502C19.0195 14.1502 20.6367 15.9666 22.582 18.1873C26.4434 22.5877 26.209 22.2713 25.7285 22.4295C25.4473 22.5291 4.5586 22.5291 4.27149 22.4353C3.82032 22.283 3.63868 22.5291 7.47071 18.1697L11.0215 14.115L11.2383 14.3025C11.3555 14.408 12.1875 15.1404 13.084 15.9314Z" fill="#28E98C"/>
</svg>
