<svg width="20" height="20" viewBox="0 0 20 20" fill="none" xmlns="http://www.w3.org/2000/svg">
<g clip-path="url(#clip0_35_262)">
<path d="M17.418 0.706989C16.7422 0.749958 15.7305 0.914021 14.9883 1.09761C12.6445 1.68746 10.5625 2.75777 8.65234 4.35933L8.21875 4.71871L7.74218 4.54683C6.77734 4.19527 5.98047 4.06636 5.46875 4.17574C5.02343 4.2734 4.32812 4.66402 3.59375 5.23043C2.67187 5.94136 0.898435 7.63668 0.769528 7.92574C0.609372 8.28511 0.707028 8.72261 1.0039 8.98824C1.14062 9.11324 1.28515 9.17183 2.03515 9.41011C3.09765 9.75386 4.03906 10.0546 4.05078 10.0625C4.05859 10.0625 3.89843 10.3828 3.69922 10.7734L3.33984 11.4843L3.34375 11.8046C3.34375 12.3945 3.27343 12.3007 5.44531 14.4843C7.51562 16.5625 7.5664 16.6054 8.02734 16.6601C8.34765 16.7031 8.58593 16.6289 9.28906 16.2656C9.92187 15.9414 9.92578 15.9414 9.96093 16.0312C9.97656 16.082 10.1836 16.7109 10.4102 17.4257C10.6406 18.1445 10.8516 18.7734 10.8789 18.8281C11.0859 19.2304 11.6523 19.4179 12.0742 19.2304C12.3437 19.1054 13.9102 17.4843 14.6602 16.5429C15.2656 15.7851 15.707 15.0234 15.8203 14.5351C15.9375 14.039 15.8047 13.2343 15.4531 12.2578L15.2812 11.7812L15.6406 11.3476C16.2617 10.6093 16.6875 10.0078 17.1875 9.17965C17.4766 8.69918 18.0117 7.62105 18.2227 7.10152C18.8711 5.49215 19.2891 3.59761 19.3008 2.18746C19.3086 1.74996 19.3008 1.7109 19.1914 1.47652C18.9687 1.01168 18.5937 0.749958 18.0664 0.695271C17.9805 0.683552 17.6875 0.691364 17.418 0.706989ZM18.1289 1.87886C18.1992 1.94918 18.207 1.98824 18.1836 2.3359C18.0703 4.10933 17.6094 5.8398 16.8203 7.48043C15.5312 10.164 13.4023 12.4648 10.5469 14.2656C9.66406 14.8242 8.32031 15.5468 8.17578 15.5468C8.08203 15.5468 4.45312 11.9179 4.45312 11.8242C4.45312 11.7421 4.71875 11.2109 5.10937 10.5078C7.67187 5.91402 11.3555 2.99996 15.7812 2.07027C16.293 1.9609 17.1016 1.84761 17.5391 1.82418C18.043 1.79293 18.0469 1.79683 18.1289 1.87886ZM6.76562 5.40621C6.9414 5.4609 7.14062 5.51949 7.19921 5.54293L7.3125 5.5859L6.98437 5.94918C6.23828 6.7734 5.68359 7.49215 5.05078 8.44918C4.82422 8.78902 4.61718 9.05855 4.59375 9.05074C4.57031 9.04293 3.97656 8.85152 3.27343 8.62886C2.57031 8.40621 1.99609 8.2148 1.99609 8.20308C2.0039 8.16793 3.41406 6.8398 3.76953 6.53902C4.64453 5.79683 5.36718 5.33199 5.73437 5.2773C5.97656 5.24215 6.36328 5.29293 6.76562 5.40621ZM14.5273 13.0078C14.6641 13.4336 14.7305 13.7851 14.7305 14.0781C14.7305 14.332 14.7148 14.3867 14.5547 14.707C14.3633 15.082 13.9492 15.6562 13.4609 16.2304C13.1562 16.5859 11.832 17.9961 11.7969 18.0039C11.7852 18.0039 11.5937 17.4296 11.3711 16.7265C11.1445 16.0234 10.957 15.4296 10.9492 15.4062C10.9414 15.3828 11.2109 15.1757 11.5508 14.9531C12.5117 14.3164 13.3633 13.6484 14.1406 12.9375C14.2812 12.8086 14.4062 12.7148 14.418 12.7265C14.4336 12.7421 14.4805 12.8671 14.5273 13.0078Z" fill="currentcolor"/>
<path d="M12.8516 4.31634C11.5898 4.6015 10.8086 5.89837 11.1328 7.164C11.2461 7.60541 11.418 7.90619 11.7578 8.24212C12.0937 8.58197 12.3945 8.75384 12.8359 8.86712C14.0742 9.18353 15.3242 8.45697 15.6875 7.20697C15.7695 6.91791 15.7812 6.3515 15.707 6.05462C15.5039 5.23041 14.9219 4.60931 14.1133 4.3515C13.8398 4.26556 13.1602 4.24603 12.8516 4.31634ZM13.9297 5.4765C14.1719 5.58978 14.4102 5.82416 14.5312 6.07416C14.6602 6.34369 14.668 6.81244 14.5469 7.07416C14.4258 7.33197 14.207 7.55853 13.9531 7.68353C13.7617 7.77728 13.6836 7.79291 13.3984 7.79291C13.0078 7.789 12.793 7.70697 12.543 7.45306C12.2852 7.19916 12.207 6.99212 12.207 6.58197C12.207 6.27728 12.2227 6.20306 12.3125 6.03119C12.4141 5.83587 12.6445 5.59759 12.8203 5.50384C13.1445 5.32806 13.5977 5.31634 13.9297 5.4765Z" fill="currentcolor"/>
<path d="M2.83201 13.6914C2.6367 13.7617 2.5742 13.8359 2.34373 14.2968C1.87889 15.2265 1.59373 16.2851 1.48436 17.5117C1.43358 18.0507 1.4492 18.1601 1.60545 18.3398C1.78514 18.5429 1.91404 18.5703 2.47264 18.5195C3.69529 18.4101 4.74608 18.1289 5.69139 17.664C6.1367 17.4453 6.23826 17.3632 6.30467 17.1757C6.41795 16.8476 6.21483 16.4921 5.88279 16.4296C5.75389 16.4062 5.67186 16.4296 5.23436 16.6367C4.48045 16.996 3.68358 17.2304 2.78123 17.3593L2.61717 17.3828L2.64061 17.2187C2.76951 16.3164 3.00389 15.5195 3.36326 14.7656C3.56639 14.332 3.59373 14.246 3.57029 14.121C3.53514 13.9296 3.35154 13.7226 3.17186 13.6718C2.99998 13.625 3.02342 13.625 2.83201 13.6914Z" fill="currentcolor"/>
</g>
<defs>
<clipPath id="clip0_35_262">
<rect width="20" height="20" fill="currentcolor"/>
</clipPath>
</defs>
</svg>
