<svg width="64" height="64" viewBox="0 0 64 64" fill="none" xmlns="http://www.w3.org/2000/svg">
<path fill-rule="evenodd" clip-rule="evenodd" d="M32 2.55127C15.3265 2.55127 1.806 16.0688 1.806 32.7453C1.806 46.0863 10.4575 57.4038 22.4545 61.3968C23.963 61.6768 24.517 60.7418 24.517 59.9443C24.517 59.2243 24.489 56.8458 24.476 54.3228C16.076 56.1493 14.3035 50.7603 14.3035 50.7603C12.93 47.2703 10.951 46.3423 10.951 46.3423C8.211 44.4683 11.1575 44.5073 11.1575 44.5073C14.189 44.7198 15.786 47.6188 15.786 47.6188C18.479 52.2338 22.8495 50.8998 24.5725 50.1288C24.8435 48.1773 25.626 46.8448 26.4895 46.0908C19.783 45.3283 12.7325 42.7388 12.7325 31.1693C12.7325 27.8728 13.9125 25.1793 15.844 23.0643C15.53 22.3043 14.4965 19.2333 16.136 15.0743C16.136 15.0743 18.671 14.2628 24.441 18.1693C26.85 17.4998 29.4335 17.1633 32 17.1518C34.565 17.1633 37.15 17.4988 39.5635 18.1683C45.3265 14.2618 47.8585 15.0733 47.8585 15.0733C49.502 19.2318 48.4685 22.3033 48.155 23.0633C50.091 25.1783 51.2625 27.8718 51.2625 31.1683C51.2625 42.7653 44.199 45.3183 37.4755 46.0663C38.559 47.0033 39.524 48.8413 39.524 51.6578C39.524 55.6978 39.489 58.9493 39.489 59.9438C39.489 60.7473 40.033 61.6888 41.563 61.3923C53.553 57.3953 62.1945 46.0813 62.1945 32.7453C62.194 16.0698 48.675 2.55127 32 2.55127Z" fill="white"/>
<path d="M13.242 45.9027C13.1755 46.0527 12.9395 46.0977 12.7245 45.9952C12.5045 45.8972 12.382 45.6927 12.453 45.5422C12.518 45.3872 12.7545 45.3447 12.973 45.4482C13.193 45.5467 13.318 45.7532 13.2415 45.9032L13.242 45.9027ZM14.465 47.2672C14.3215 47.4007 14.04 47.3387 13.849 47.1272C13.651 46.9172 13.614 46.6357 13.7605 46.5002C13.9095 46.3672 14.1825 46.4302 14.3805 46.6402C14.5775 46.8532 14.6165 47.1322 14.4655 47.2677L14.465 47.2672ZM15.656 49.0057C15.471 49.1347 15.168 49.0142 14.981 48.7457C14.796 48.4767 14.796 48.1542 14.986 48.0257C15.1725 47.8967 15.471 48.0132 15.661 48.2792C15.845 48.5517 15.845 48.8747 15.656 49.0057ZM17.2865 50.6862C17.1215 50.8687 16.7685 50.8197 16.5105 50.5712C16.247 50.3277 16.1735 49.9812 16.339 49.7992C16.507 49.6162 16.8615 49.6672 17.121 49.9142C17.3845 50.1572 17.464 50.5042 17.2875 50.6857L17.2865 50.6862ZM19.5365 51.6617C19.463 51.8982 19.124 52.0057 18.7815 51.9047C18.44 51.8012 18.2165 51.5247 18.2865 51.2857C18.3565 51.0472 18.698 50.9357 19.0425 51.0432C19.384 51.1462 19.6075 51.4212 19.5365 51.6617ZM22.008 51.8422C22.0165 52.0912 21.7265 52.2972 21.368 52.3022C21.0065 52.3107 20.714 52.1087 20.7105 51.8637C20.7105 51.6122 20.9945 51.4087 21.3555 51.4017C21.714 51.3952 22.0085 51.5952 22.0085 51.8417L22.008 51.8422ZM24.307 51.4512C24.35 51.6937 24.1005 51.9432 23.744 52.0097C23.394 52.0747 23.069 51.9237 23.024 51.6832C22.981 51.4342 23.235 51.1847 23.585 51.1202C23.942 51.0587 24.262 51.2047 24.307 51.4512Z" fill="white"/>
</svg>
