<svg width="32" height="32" viewBox="0 0 32 32" fill="none" xmlns="http://www.w3.org/2000/svg">
<g clip-path="url(#clip0_164_39)">
<rect width="32" height="32" rx="3" fill="black"/>
<path d="M12.53 19.345C12.53 19.035 12.405 18.745 12.155 18.475C11.905 18.205 11.59 17.96 11.21 17.74C10.84 17.51 10.335 17.23 9.695 16.9C8.935 16.5 8.325 16.16 7.865 15.88C7.405 15.59 7.01 15.25 6.68 14.86C6.36 14.47 6.2 14.04 6.2 13.57C6.2 13.07 6.41 12.535 6.83 11.965C7.25 11.385 7.76 10.9 8.36 10.51C8.97 10.11 9.53 9.91 10.04 9.91C10.66 9.91 11.38 9.985 12.2 10.135C13.02 10.285 13.62 10.445 14 10.615V13.525H13.43C12.94 12.715 12.4 12.085 11.81 11.635C11.23 11.185 10.62 10.96 9.98 10.96C9.41 10.96 8.955 11.14 8.615 11.5C8.285 11.85 8.12 12.31 8.12 12.88C8.12 13.21 8.245 13.52 8.495 13.81C8.755 14.09 9.07 14.34 9.44 14.56C9.82 14.78 10.345 15.065 11.015 15.415C11.755 15.785 12.355 16.115 12.815 16.405C13.275 16.685 13.66 17.015 13.97 17.395C14.29 17.765 14.45 18.185 14.45 18.655C14.45 19.155 14.225 19.695 13.775 20.275C13.325 20.845 12.775 21.33 12.125 21.73C11.485 22.12 10.9 22.315 10.37 22.315C9.72 22.315 8.945 22.24 8.045 22.09C7.155 21.94 6.515 21.78 6.125 21.61V18.7H6.695C7.205 19.51 7.785 20.14 8.435 20.59C9.085 21.04 9.755 21.265 10.445 21.265C10.855 21.265 11.22 21.175 11.54 20.995C11.86 20.815 12.105 20.58 12.275 20.29C12.445 19.99 12.53 19.675 12.53 19.345ZM25.4029 22H16.4029V21.535L17.8129 20.425V11.335L16.2529 10.81L16.5529 10.21H25.2529L26.0629 9.94V13.39L25.6129 13.54L23.8279 10.885H19.6879V15.64H22.0429L23.1379 13.72H23.6029V18.28L23.0029 18.58L22.0579 16.315H19.6879V21.325H23.7679L25.7629 18.37L26.2129 18.52V22.27L25.4029 22Z" fill="#28E98C"/>
</g>
<defs>
<clipPath id="clip0_164_39">
<rect width="32" height="32" rx="3" fill="white"/>
</clipPath>
</defs>
</svg>
